<mxfile host="65bd71144e">
    <diagram id="C5RBs43oDa-KdzZeNtuy" name="Page-1">
        <mxGraphModel dx="615" dy="481" grid="1" gridSize="10" guides="1" tooltips="1" connect="1" arrows="1" fold="1" page="1" pageScale="1" pageWidth="827" pageHeight="1169" math="0" shadow="0">
            <root>
                <mxCell id="WIyWlLk6GJQsqaUBKTNV-0"/>
                <mxCell id="WIyWlLk6GJQsqaUBKTNV-1" parent="WIyWlLk6GJQsqaUBKTNV-0"/>
                <mxCell id="ydyEIxL2LpkBDbxch32T-0" value="User" style="swimlane;fontStyle=1;align=center;verticalAlign=top;childLayout=stackLayout;horizontal=1;startSize=26;horizontalStack=0;resizeParent=1;resizeParentMax=0;resizeLast=0;collapsible=1;marginBottom=0;whiteSpace=wrap;html=1;" parent="WIyWlLk6GJQsqaUBKTNV-1" vertex="1">
                    <mxGeometry x="300" y="10" width="160" height="180" as="geometry"/>
                </mxCell>
                <mxCell id="ydyEIxL2LpkBDbxch32T-1" value="- name: String&lt;br&gt;- role: String&lt;br&gt;- id: int" style="text;strokeColor=none;fillColor=none;align=left;verticalAlign=top;spacingLeft=4;spacingRight=4;overflow=hidden;rotatable=0;points=[[0,0.5],[1,0.5]];portConstraint=eastwest;whiteSpace=wrap;html=1;" parent="ydyEIxL2LpkBDbxch32T-0" vertex="1">
                    <mxGeometry y="26" width="160" height="64" as="geometry"/>
                </mxCell>
                <mxCell id="ydyEIxL2LpkBDbxch32T-2" value="" style="line;strokeWidth=1;fillColor=none;align=left;verticalAlign=middle;spacingTop=-1;spacingLeft=3;spacingRight=3;rotatable=0;labelPosition=right;points=[];portConstraint=eastwest;strokeColor=inherit;" parent="ydyEIxL2LpkBDbxch32T-0" vertex="1">
                    <mxGeometry y="90" width="160" height="8" as="geometry"/>
                </mxCell>
                <mxCell id="ydyEIxL2LpkBDbxch32T-3" value="+ getId(): int&lt;br&gt;+ getRole(): String&lt;br&gt;+ getName(): String&lt;br&gt;+ setName(String): void&lt;br&gt;+ setRole(String): void" style="text;strokeColor=none;fillColor=none;align=left;verticalAlign=top;spacingLeft=4;spacingRight=4;overflow=hidden;rotatable=0;points=[[0,0.5],[1,0.5]];portConstraint=eastwest;whiteSpace=wrap;html=1;" parent="ydyEIxL2LpkBDbxch32T-0" vertex="1">
                    <mxGeometry y="98" width="160" height="82" as="geometry"/>
                </mxCell>
                <mxCell id="ydyEIxL2LpkBDbxch32T-4" value="Staff" style="swimlane;fontStyle=1;align=center;verticalAlign=top;childLayout=stackLayout;horizontal=1;startSize=26;horizontalStack=0;resizeParent=1;resizeParentMax=0;resizeLast=0;collapsible=1;marginBottom=0;whiteSpace=wrap;html=1;" parent="WIyWlLk6GJQsqaUBKTNV-1" vertex="1">
                    <mxGeometry x="10" y="220" width="160" height="140" as="geometry"/>
                </mxCell>
                <mxCell id="ydyEIxL2LpkBDbxch32T-5" value="- shop: String" style="text;strokeColor=none;fillColor=none;align=left;verticalAlign=top;spacingLeft=4;spacingRight=4;overflow=hidden;rotatable=0;points=[[0,0.5],[1,0.5]];portConstraint=eastwest;whiteSpace=wrap;html=1;" parent="ydyEIxL2LpkBDbxch32T-4" vertex="1">
                    <mxGeometry y="26" width="160" height="64" as="geometry"/>
                </mxCell>
                <mxCell id="ydyEIxL2LpkBDbxch32T-6" value="" style="line;strokeWidth=1;fillColor=none;align=left;verticalAlign=middle;spacingTop=-1;spacingLeft=3;spacingRight=3;rotatable=0;labelPosition=right;points=[];portConstraint=eastwest;strokeColor=inherit;" parent="ydyEIxL2LpkBDbxch32T-4" vertex="1">
                    <mxGeometry y="90" width="160" height="8" as="geometry"/>
                </mxCell>
                <mxCell id="ydyEIxL2LpkBDbxch32T-7" value="+ getShop(): String&lt;br&gt;+ setShop(String): void" style="text;strokeColor=none;fillColor=none;align=left;verticalAlign=top;spacingLeft=4;spacingRight=4;overflow=hidden;rotatable=0;points=[[0,0.5],[1,0.5]];portConstraint=eastwest;whiteSpace=wrap;html=1;" parent="ydyEIxL2LpkBDbxch32T-4" vertex="1">
                    <mxGeometry y="98" width="160" height="42" as="geometry"/>
                </mxCell>
                <mxCell id="ydyEIxL2LpkBDbxch32T-11" style="edgeStyle=orthogonalEdgeStyle;rounded=0;orthogonalLoop=1;jettySize=auto;html=1;exitX=1;exitY=0.5;exitDx=0;exitDy=0;entryX=0;entryY=0.5;entryDx=0;entryDy=0;endArrow=block;endFill=1;" parent="WIyWlLk6GJQsqaUBKTNV-1" source="ydyEIxL2LpkBDbxch32T-5" target="ydyEIxL2LpkBDbxch32T-1" edge="1">
                    <mxGeometry relative="1" as="geometry">
                        <mxPoint x="290" y="70" as="targetPoint"/>
                    </mxGeometry>
                </mxCell>
                <mxCell id="ydyEIxL2LpkBDbxch32T-20" style="edgeStyle=orthogonalEdgeStyle;rounded=0;orthogonalLoop=1;jettySize=auto;html=1;exitX=0;exitY=0.5;exitDx=0;exitDy=0;entryX=1;entryY=0.5;entryDx=0;entryDy=0;endArrow=block;endFill=1;" parent="WIyWlLk6GJQsqaUBKTNV-1" target="ydyEIxL2LpkBDbxch32T-1" edge="1">
                    <mxGeometry relative="1" as="geometry">
                        <mxPoint x="580" y="273" as="sourcePoint"/>
                    </mxGeometry>
                </mxCell>
                <mxCell id="ydyEIxL2LpkBDbxch32T-22" value="Customer" style="swimlane;fontStyle=1;align=center;verticalAlign=top;childLayout=stackLayout;horizontal=1;startSize=26;horizontalStack=0;resizeParent=1;resizeParentMax=0;resizeLast=0;collapsible=1;marginBottom=0;whiteSpace=wrap;html=1;" parent="WIyWlLk6GJQsqaUBKTNV-1" vertex="1">
                    <mxGeometry x="520" y="274" width="190" height="120" as="geometry"/>
                </mxCell>
                <mxCell id="ydyEIxL2LpkBDbxch32T-23" value="- vehicles: List&amp;lt;Vehicles&amp;gt;&lt;br&gt;- openBills: List&amp;lt;String&amp;gt;" style="text;strokeColor=none;fillColor=none;align=left;verticalAlign=top;spacingLeft=4;spacingRight=4;overflow=hidden;rotatable=0;points=[[0,0.5],[1,0.5]];portConstraint=eastwest;whiteSpace=wrap;html=1;" parent="ydyEIxL2LpkBDbxch32T-22" vertex="1">
                    <mxGeometry y="26" width="190" height="34" as="geometry"/>
                </mxCell>
                <mxCell id="ydyEIxL2LpkBDbxch32T-24" value="" style="line;strokeWidth=1;fillColor=none;align=left;verticalAlign=middle;spacingTop=-1;spacingLeft=3;spacingRight=3;rotatable=0;labelPosition=right;points=[];portConstraint=eastwest;strokeColor=inherit;" parent="ydyEIxL2LpkBDbxch32T-22" vertex="1">
                    <mxGeometry y="60" width="190" height="8" as="geometry"/>
                </mxCell>
                <mxCell id="ydyEIxL2LpkBDbxch32T-25" value="+ getVehicles(): List&amp;lt;Vehicles&amp;gt;&lt;br&gt;+ addVehicle(Vehicle): void" style="text;strokeColor=none;fillColor=none;align=left;verticalAlign=top;spacingLeft=4;spacingRight=4;overflow=hidden;rotatable=0;points=[[0,0.5],[1,0.5]];portConstraint=eastwest;whiteSpace=wrap;html=1;" parent="ydyEIxL2LpkBDbxch32T-22" vertex="1">
                    <mxGeometry y="68" width="190" height="52" as="geometry"/>
                </mxCell>
                <mxCell id="ydyEIxL2LpkBDbxch32T-26" value="Vehicle" style="swimlane;fontStyle=1;align=center;verticalAlign=top;childLayout=stackLayout;horizontal=1;startSize=26;horizontalStack=0;resizeParent=1;resizeParentMax=0;resizeLast=0;collapsible=1;marginBottom=0;whiteSpace=wrap;html=1;" parent="WIyWlLk6GJQsqaUBKTNV-1" vertex="1">
                    <mxGeometry x="254" y="274" width="160" height="230" as="geometry"/>
                </mxCell>
                <mxCell id="ydyEIxL2LpkBDbxch32T-27" value="- status: Status&lt;br&gt;- type: Type&lt;br&gt;- price: int&lt;br&gt;- id: int" style="text;strokeColor=none;fillColor=none;align=left;verticalAlign=top;spacingLeft=4;spacingRight=4;overflow=hidden;rotatable=0;points=[[0,0.5],[1,0.5]];portConstraint=eastwest;whiteSpace=wrap;html=1;" parent="ydyEIxL2LpkBDbxch32T-26" vertex="1">
                    <mxGeometry y="26" width="160" height="64" as="geometry"/>
                </mxCell>
                <mxCell id="ydyEIxL2LpkBDbxch32T-28" value="" style="line;strokeWidth=1;fillColor=none;align=left;verticalAlign=middle;spacingTop=-1;spacingLeft=3;spacingRight=3;rotatable=0;labelPosition=right;points=[];portConstraint=eastwest;strokeColor=inherit;" parent="ydyEIxL2LpkBDbxch32T-26" vertex="1">
                    <mxGeometry y="90" width="160" height="8" as="geometry"/>
                </mxCell>
                <mxCell id="ydyEIxL2LpkBDbxch32T-29" value="+ setStatus(Status): void&lt;br&gt;+ setType(Type): void&lt;br&gt;+ setPrice(int): void&lt;br&gt;+ getId(): int&lt;br&gt;+ getType(): Type&lt;br&gt;+ getPrice(): int&lt;br&gt;+ getStatus(): Status" style="text;strokeColor=none;fillColor=none;align=left;verticalAlign=top;spacingLeft=4;spacingRight=4;overflow=hidden;rotatable=0;points=[[0,0.5],[1,0.5]];portConstraint=eastwest;whiteSpace=wrap;html=1;" parent="ydyEIxL2LpkBDbxch32T-26" vertex="1">
                    <mxGeometry y="98" width="160" height="132" as="geometry"/>
                </mxCell>
                <mxCell id="ydyEIxL2LpkBDbxch32T-30" value="&lt;p style=&quot;margin:0px;margin-top:4px;text-align:center;&quot;&gt;&lt;i&gt;&amp;lt;&amp;lt;Enumeration&amp;gt;&amp;gt;&lt;/i&gt;&lt;br&gt;&lt;b&gt;Status&lt;/b&gt;&lt;/p&gt;&lt;hr size=&quot;1&quot;&gt;&lt;p style=&quot;margin:0px;margin-left:4px;&quot;&gt;Open&lt;/p&gt;&lt;p style=&quot;margin:0px;margin-left:4px;&quot;&gt;Reserved&lt;/p&gt;&lt;p style=&quot;margin:0px;margin-left:4px;&quot;&gt;ReadyForPickup&lt;/p&gt;&lt;p style=&quot;margin:0px;margin-left:4px;&quot;&gt;Closed&lt;/p&gt;" style="verticalAlign=top;align=left;overflow=fill;fontSize=12;fontFamily=Helvetica;html=1;whiteSpace=wrap;" parent="WIyWlLk6GJQsqaUBKTNV-1" vertex="1">
                    <mxGeometry x="550" y="470" width="190" height="110" as="geometry"/>
                </mxCell>
                <mxCell id="ydyEIxL2LpkBDbxch32T-31" value="" style="endArrow=none;startArrow=circlePlus;endFill=0;startFill=0;endSize=8;html=1;rounded=0;exitX=1;exitY=0.5;exitDx=0;exitDy=0;strokeColor=default;" parent="WIyWlLk6GJQsqaUBKTNV-1" source="ydyEIxL2LpkBDbxch32T-27" target="ydyEIxL2LpkBDbxch32T-30" edge="1">
                    <mxGeometry width="160" relative="1" as="geometry">
                        <mxPoint x="330" y="510" as="sourcePoint"/>
                        <mxPoint x="490" y="510" as="targetPoint"/>
                    </mxGeometry>
                </mxCell>
                <mxCell id="ydyEIxL2LpkBDbxch32T-32" value="&lt;p style=&quot;margin:0px;margin-top:4px;text-align:center;&quot;&gt;&lt;i&gt;&amp;lt;&amp;lt;Enumeration&amp;gt;&amp;gt;&lt;/i&gt;&lt;br&gt;&lt;b&gt;Type&lt;/b&gt;&lt;/p&gt;&lt;hr size=&quot;1&quot;&gt;&lt;p style=&quot;margin:0px;margin-left:4px;&quot;&gt;EBike&lt;/p&gt;&lt;p style=&quot;margin:0px;margin-left:4px;&quot;&gt;MountainBike&lt;/p&gt;&lt;p style=&quot;margin:0px;margin-left:4px;&quot;&gt;CityBike&lt;/p&gt;" style="verticalAlign=top;align=left;overflow=fill;fontSize=12;fontFamily=Helvetica;html=1;whiteSpace=wrap;" parent="WIyWlLk6GJQsqaUBKTNV-1" vertex="1">
                    <mxGeometry x="550" y="600" width="190" height="110" as="geometry"/>
                </mxCell>
                <mxCell id="ydyEIxL2LpkBDbxch32T-33" value="" style="endArrow=none;startArrow=circlePlus;endFill=0;startFill=0;endSize=8;html=1;rounded=0;strokeColor=default;entryX=0;entryY=0.25;entryDx=0;entryDy=0;" parent="WIyWlLk6GJQsqaUBKTNV-1" target="ydyEIxL2LpkBDbxch32T-32" edge="1">
                    <mxGeometry width="160" relative="1" as="geometry">
                        <mxPoint x="420" y="360" as="sourcePoint"/>
                        <mxPoint x="485" y="642" as="targetPoint"/>
                    </mxGeometry>
                </mxCell>
                <mxCell id="ydyEIxL2LpkBDbxch32T-34" value="StorageService" style="swimlane;fontStyle=1;align=center;verticalAlign=top;childLayout=stackLayout;horizontal=1;startSize=26;horizontalStack=0;resizeParent=1;resizeParentMax=0;resizeLast=0;collapsible=1;marginBottom=0;whiteSpace=wrap;html=1;" parent="WIyWlLk6GJQsqaUBKTNV-1" vertex="1">
                    <mxGeometry x="4" y="840" width="250" height="140" as="geometry"/>
                </mxCell>
                <mxCell id="ydyEIxL2LpkBDbxch32T-35" value="- vehicleService: VehicleService&lt;br&gt;- userService: UserService" style="text;strokeColor=none;fillColor=none;align=left;verticalAlign=top;spacingLeft=4;spacingRight=4;overflow=hidden;rotatable=0;points=[[0,0.5],[1,0.5]];portConstraint=eastwest;whiteSpace=wrap;html=1;" parent="ydyEIxL2LpkBDbxch32T-34" vertex="1">
                    <mxGeometry y="26" width="250" height="44" as="geometry"/>
                </mxCell>
                <mxCell id="ydyEIxL2LpkBDbxch32T-36" value="" style="line;strokeWidth=1;fillColor=none;align=left;verticalAlign=middle;spacingTop=-1;spacingLeft=3;spacingRight=3;rotatable=0;labelPosition=right;points=[];portConstraint=eastwest;strokeColor=inherit;" parent="ydyEIxL2LpkBDbxch32T-34" vertex="1">
                    <mxGeometry y="70" width="250" height="8" as="geometry"/>
                </mxCell>
                <mxCell id="ydyEIxL2LpkBDbxch32T-37" value="+ reserveVehicle(Customer, Vehicle): void&lt;br&gt;+ getReservedVehicles(): List&amp;lt;Vehicle&amp;gt;" style="text;strokeColor=none;fillColor=none;align=left;verticalAlign=top;spacingLeft=4;spacingRight=4;overflow=hidden;rotatable=0;points=[[0,0.5],[1,0.5]];portConstraint=eastwest;whiteSpace=wrap;html=1;" parent="ydyEIxL2LpkBDbxch32T-34" vertex="1">
                    <mxGeometry y="78" width="250" height="62" as="geometry"/>
                </mxCell>
                <mxCell id="ydyEIxL2LpkBDbxch32T-38" value="UserService" style="swimlane;fontStyle=1;align=center;verticalAlign=top;childLayout=stackLayout;horizontal=1;startSize=26;horizontalStack=0;resizeParent=1;resizeParentMax=0;resizeLast=0;collapsible=1;marginBottom=0;whiteSpace=wrap;html=1;" parent="WIyWlLk6GJQsqaUBKTNV-1" vertex="1">
                    <mxGeometry x="300" y="840" width="250" height="130" as="geometry"/>
                </mxCell>
                <mxCell id="ydyEIxL2LpkBDbxch32T-39" value="- users: Collection&amp;lt;Users&amp;gt;" style="text;strokeColor=none;fillColor=none;align=left;verticalAlign=top;spacingLeft=4;spacingRight=4;overflow=hidden;rotatable=0;points=[[0,0.5],[1,0.5]];portConstraint=eastwest;whiteSpace=wrap;html=1;" parent="ydyEIxL2LpkBDbxch32T-38" vertex="1">
                    <mxGeometry y="26" width="250" height="26" as="geometry"/>
                </mxCell>
                <mxCell id="ydyEIxL2LpkBDbxch32T-40" value="" style="line;strokeWidth=1;fillColor=none;align=left;verticalAlign=middle;spacingTop=-1;spacingLeft=3;spacingRight=3;rotatable=0;labelPosition=right;points=[];portConstraint=eastwest;strokeColor=inherit;" parent="ydyEIxL2LpkBDbxch32T-38" vertex="1">
                    <mxGeometry y="52" width="250" height="8" as="geometry"/>
                </mxCell>
                <mxCell id="ydyEIxL2LpkBDbxch32T-41" value="+ getAllCustomer(): List&amp;lt;User&amp;gt;&lt;br&gt;+ getAllStaff(): List&amp;lt;User&amp;gt;&lt;br&gt;+ findUserById(int): User" style="text;strokeColor=none;fillColor=none;align=left;verticalAlign=top;spacingLeft=4;spacingRight=4;overflow=hidden;rotatable=0;points=[[0,0.5],[1,0.5]];portConstraint=eastwest;whiteSpace=wrap;html=1;" parent="ydyEIxL2LpkBDbxch32T-38" vertex="1">
                    <mxGeometry y="60" width="250" height="70" as="geometry"/>
                </mxCell>
                <mxCell id="ydyEIxL2LpkBDbxch32T-42" value="VehicleService" style="swimlane;fontStyle=1;align=center;verticalAlign=top;childLayout=stackLayout;horizontal=1;startSize=26;horizontalStack=0;resizeParent=1;resizeParentMax=0;resizeLast=0;collapsible=1;marginBottom=0;whiteSpace=wrap;html=1;" parent="WIyWlLk6GJQsqaUBKTNV-1" vertex="1">
                    <mxGeometry x="587" y="835" width="240" height="150" as="geometry"/>
                </mxCell>
                <mxCell id="ydyEIxL2LpkBDbxch32T-43" value="- vehicles: List&amp;lt;Vehicle&amp;gt;" style="text;strokeColor=none;fillColor=none;align=left;verticalAlign=top;spacingLeft=4;spacingRight=4;overflow=hidden;rotatable=0;points=[[0,0.5],[1,0.5]];portConstraint=eastwest;whiteSpace=wrap;html=1;" parent="ydyEIxL2LpkBDbxch32T-42" vertex="1">
                    <mxGeometry y="26" width="240" height="26" as="geometry"/>
                </mxCell>
                <mxCell id="ydyEIxL2LpkBDbxch32T-44" value="" style="line;strokeWidth=1;fillColor=none;align=left;verticalAlign=middle;spacingTop=-1;spacingLeft=3;spacingRight=3;rotatable=0;labelPosition=right;points=[];portConstraint=eastwest;strokeColor=inherit;" parent="ydyEIxL2LpkBDbxch32T-42" vertex="1">
                    <mxGeometry y="52" width="240" height="8" as="geometry"/>
                </mxCell>
                <mxCell id="ydyEIxL2LpkBDbxch32T-45" value="+ addVehicle(Vehicle): void&lt;br&gt;+ removeVehicle(Vehicle): void&lt;br&gt;+ getVehicles(): List&amp;lt;Vehicle&amp;gt;&lt;br&gt;+ findVehicleById(int): Vehicle&lt;br&gt;+ doesVehicleExist(Vehicle): boolean&amp;nbsp;" style="text;strokeColor=none;fillColor=none;align=left;verticalAlign=top;spacingLeft=4;spacingRight=4;overflow=hidden;rotatable=0;points=[[0,0.5],[1,0.5]];portConstraint=eastwest;whiteSpace=wrap;html=1;" parent="ydyEIxL2LpkBDbxch32T-42" vertex="1">
                    <mxGeometry y="60" width="240" height="90" as="geometry"/>
                </mxCell>
                <mxCell id="ydyEIxL2LpkBDbxch32T-46" value="Main" style="swimlane;fontStyle=1;align=center;verticalAlign=top;childLayout=stackLayout;horizontal=1;startSize=26;horizontalStack=0;resizeParent=1;resizeParentMax=0;resizeLast=0;collapsible=1;marginBottom=0;whiteSpace=wrap;html=1;" parent="WIyWlLk6GJQsqaUBKTNV-1" vertex="1">
                    <mxGeometry x="334" y="1090" width="160" height="60" as="geometry"/>
                </mxCell>
                <mxCell id="ydyEIxL2LpkBDbxch32T-48" value="" style="line;strokeWidth=1;fillColor=none;align=left;verticalAlign=middle;spacingTop=-1;spacingLeft=3;spacingRight=3;rotatable=0;labelPosition=right;points=[];portConstraint=eastwest;strokeColor=inherit;" parent="ydyEIxL2LpkBDbxch32T-46" vertex="1">
                    <mxGeometry y="26" width="160" height="8" as="geometry"/>
                </mxCell>
                <mxCell id="ydyEIxL2LpkBDbxch32T-49" value="+ main(String[])" style="text;strokeColor=none;fillColor=none;align=left;verticalAlign=top;spacingLeft=4;spacingRight=4;overflow=hidden;rotatable=0;points=[[0,0.5],[1,0.5]];portConstraint=eastwest;whiteSpace=wrap;html=1;" parent="ydyEIxL2LpkBDbxch32T-46" vertex="1">
                    <mxGeometry y="34" width="160" height="26" as="geometry"/>
                </mxCell>
            </root>
        </mxGraphModel>
    </diagram>
</mxfile>